<svg xmlns="http://www.w3.org/2000/svg" xmlns:xlink="http://www.w3.org/1999/xlink" version="1.1" width="256" height="256" viewBox="0 0 256 256" xml:space="preserve">

<defs>
</defs>
<g style="stroke: none; stroke-width: 0; stroke-dasharray: none; stroke-linecap: butt; stroke-linejoin: miter; stroke-miterlimit: 10; fill: none; fill-rule: nonzero; opacity: 1;" transform="translate(1.4065934065934016 1.4065934065934016) scale(2.81 2.81)" >
	<path d="M 73.381 0 H 16.619 C 7.44 0 0 7.44 0 16.619 v 56.763 C 0 82.56 7.44 90 16.619 90 h 56.763 C 82.56 90 90 82.56 90 73.381 V 16.619 C 90 7.44 82.56 0 73.381 0 z M 76.934 31.805 L 66.917 42.8 c -1.725 1.893 -4.149 2.997 -6.709 3.055 l -5.584 0.126 l -2.506 2.741 L 69.503 64.62 c 2.609 2.386 2.7 6.466 0.2 8.966 c -2.5 2.5 -6.58 2.409 -8.966 -0.2 L 45.151 56.34 L 29.219 73.763 c -2.268 2.48 -6.201 2.485 -8.471 -0.06 c -2.098 -2.352 -1.763 -6.004 0.562 -8.131 l 17.581 -16.077 l -3.464 -3.788 l -3.279 -0.006 c -5.307 -0.009 -10.199 -2.873 -12.805 -7.497 l -5.855 -10.389 c -1.69 -2.998 -1.175 -6.754 1.258 -9.187 c 2.433 -2.433 6.189 -2.948 9.187 -1.258 l 10.389 5.855 c 4.624 2.606 7.487 7.498 7.497 12.805 l 0.005 3.279 l 4.102 3.751 l 3.018 -2.76 l 0.126 -5.584 c 0.058 -2.56 1.162 -4.984 3.055 -6.709 l 10.995 -10.018 c 0.856 -0.78 2.175 -0.75 2.994 0.07 l 0 0 c 0.847 0.847 0.847 2.22 0 3.067 L 54.749 32.494 c -0.564 0.564 -0.664 1.488 -0.145 2.093 c 0.3 0.35 0.719 0.525 1.138 0.525 c 0.383 0 0.766 -0.146 1.058 -0.438 l 11.43 -11.43 c 0.847 -0.847 2.22 -0.847 3.067 0 l 0.385 0.385 c 0.847 0.847 0.847 2.22 0 3.067 L 60.316 38.062 c -0.564 0.564 -0.664 1.488 -0.145 2.093 c 0.3 0.35 0.719 0.525 1.138 0.525 c 0.383 0 0.766 -0.146 1.058 -0.438 l 11.43 -11.431 c 0.847 -0.847 2.22 -0.847 3.067 0 C 77.684 29.63 77.715 30.949 76.934 31.805 z" style="stroke: none; stroke-width: 1; stroke-dasharray: none; stroke-linecap: butt; stroke-linejoin: miter; stroke-miterlimit: 10; fill: rgb(0,0,0); fill-rule: nonzero; opacity: 1;" transform=" matrix(1 0 0 1 0 0) " stroke-linecap="round" />
</g>
</svg>