<svg xmlns="http://www.w3.org/2000/svg" x="0px" y="0px" width="200" height="200" viewBox="0,0,256,256">
<g fill="none" fill-rule="nonzero" stroke="none" stroke-width="1" stroke-linecap="butt" stroke-linejoin="miter" stroke-miterlimit="10" stroke-dasharray="" stroke-dashoffset="0" font-family="none" font-weight="none" font-size="none" text-anchor="none" style="mix-blend-mode: normal"><g transform="scale(2.56,2.56)"><path d="M13,27c-1.105,0 -2,0.895 -2,2c0,1.105 0.895,2 2,2c1.105,0 2,-0.895 2,-2c0,-1.105 -0.895,-2 -2,-2z" fill="#ee3e54"></path><path d="M77,12c-0.552,0 -1,0.448 -1,1c0,0.552 0.448,1 1,1c0.552,0 1,-0.448 1,-1c0,-0.552 -0.448,-1 -1,-1z" fill="#f1bc19"></path><path d="M50,13c-20.435,0 -37,16.565 -37,37c0,20.435 16.565,37 37,37c20.435,0 37,-16.565 37,-37c0,-20.435 -16.565,-37 -37,-37z" fill="#fce0a2"></path><path d="M83,11c-2.209,0 -4,1.791 -4,4c0,2.209 1.791,4 4,4c2.209,0 4,-1.791 4,-4c0,-2.209 -1.791,-4 -4,-4z" fill="#f1bc19"></path><path d="M87,22c-1.105,0 -2,0.895 -2,2c0,1.105 0.895,2 2,2c1.105,0 2,-0.895 2,-2c0,-1.105 -0.895,-2 -2,-2z" fill="#ee3e54"></path><path d="M81,74c-1.105,0 -2,0.895 -2,2c0,1.105 0.895,2 2,2c1.105,0 2,-0.895 2,-2c0,-1.105 -0.895,-2 -2,-2zM15,59c-2.209,0 -4,1.791 -4,4c0,2.209 1.791,4 4,4c2.209,0 4,-1.791 4,-4c0,-2.209 -1.791,-4 -4,-4z" fill="#fbcd59"></path><path d="M25,85c-1.105,0 -2,0.895 -2,2c0,1.105 0.895,2 2,2c1.105,0 2,-0.895 2,-2c0,-1.105 -0.895,-2 -2,-2z" fill="#ee3e54"></path><path d="M18.5,51c-1.381,0 -2.5,1.119 -2.5,2.5c0,1.381 1.119,2.5 2.5,2.5c1.381,0 2.5,-1.119 2.5,-2.5c0,-1.381 -1.119,-2.5 -2.5,-2.5z" fill="#ffffff"></path><path d="M21,66c-0.552,0 -1,0.448 -1,1c0,0.552 0.448,1 1,1c0.552,0 1,-0.448 1,-1c0,-0.552 -0.448,-1 -1,-1z" fill="#f1bc19"></path><path d="M80,33c-0.552,0 -1,0.448 -1,1c0,0.552 0.448,1 1,1c0.552,0 1,-0.448 1,-1c0,-0.552 -0.448,-1 -1,-1z" fill="#ffffff"></path><path d="M28.989,64.011v-28.022c0,-3.866 3.134,-7 7,-7h28.023c3.866,0 7,3.134 7,7v28.023c0,3.866 -3.134,7 -7,7h-28.023c-3.866,-0.001 -7,-3.135 -7,-7.001z" fill-opacity="0.92941" fill="#5da3d8"></path><path d="M64,29.4c3.639,0 6.6,2.961 6.6,6.6v28c0,3.639 -2.961,6.6 -6.6,6.6h-28c-3.639,0 -6.6,-2.961 -6.6,-6.6v-28c0,-3.639 2.961,-6.6 6.6,-6.6h28M64,28h-28c-4.418,0 -8,3.582 -8,8v28c0,4.418 3.582,8 8,8h28c4.418,0 8,-3.582 8,-8v-28c0,-4.418 -3.582,-8 -8,-8z" fill="#472b29"></path><path d="M64,68.375h-28c-2.413,0 -4.375,-1.962 -4.375,-4.375v-28c0,-2.413 1.962,-4.375 4.375,-4.375h28c2.413,0 4.375,1.962 4.375,4.375v3.625c0,0.207 -0.168,0.375 -0.375,0.375c-0.207,0 -0.375,-0.168 -0.375,-0.375v-3.625c0,-1.999 -1.626,-3.625 -3.625,-3.625h-28c-1.999,0 -3.625,1.626 -3.625,3.625v28c0,1.999 1.626,3.625 3.625,3.625h28c1.999,0 3.625,-1.626 3.625,-3.625v-16.75c0,-0.207 0.168,-0.375 0.375,-0.375c0.207,0 0.375,0.168 0.375,0.375v16.75c0,2.413 -1.962,4.375 -4.375,4.375z" fill="#472b29"></path><path d="M68,45c-0.207,0 -0.375,-0.168 -0.375,-0.375v-3.25c0,-0.207 0.168,-0.375 0.375,-0.375c0.207,0 0.375,0.168 0.375,0.375v3.25c0,0.207 -0.168,0.375 -0.375,0.375z" fill="#472b29"></path><path d="M58.013,71.281c-0.027,0 -0.056,-0.007 -0.08,-0.023c-0.07,-0.044 -0.091,-0.137 -0.047,-0.207l1.962,-3.106c0.044,-0.07 0.138,-0.091 0.207,-0.047c0.07,0.044 0.091,0.137 0.047,0.207l-1.962,3.106c-0.028,0.046 -0.077,0.07 -0.127,0.07z" fill="#472b29"></path><path d="M57.013,71.281c-0.027,0 -0.056,-0.007 -0.08,-0.023c-0.07,-0.044 -0.091,-0.137 -0.047,-0.207l1.962,-3.106c0.044,-0.07 0.139,-0.091 0.207,-0.047c0.07,0.044 0.091,0.137 0.047,0.207l-1.962,3.106c-0.028,0.046 -0.077,0.07 -0.127,0.07z" fill="#472b29"></path><path d="M56.013,71.281c-0.027,0 -0.056,-0.007 -0.08,-0.023c-0.07,-0.044 -0.091,-0.137 -0.047,-0.207l1.962,-3.106c0.044,-0.07 0.139,-0.091 0.207,-0.047c0.07,0.044 0.091,0.137 0.047,0.207l-1.962,3.106c-0.028,0.046 -0.077,0.07 -0.127,0.07z" fill="#472b29"></path><path d="M55.013,71.281c-0.027,0 -0.056,-0.007 -0.08,-0.023c-0.07,-0.044 -0.091,-0.137 -0.047,-0.207l1.962,-3.106c0.044,-0.07 0.139,-0.091 0.207,-0.047c0.07,0.044 0.091,0.137 0.047,0.207l-1.962,3.106c-0.028,0.046 -0.077,0.07 -0.127,0.07z" fill="#472b29"></path><path d="M54.013,71.281c-0.027,0 -0.056,-0.007 -0.08,-0.023c-0.07,-0.044 -0.091,-0.137 -0.047,-0.207l1.962,-3.106c0.044,-0.07 0.139,-0.091 0.207,-0.047c0.07,0.044 0.091,0.137 0.047,0.207l-1.962,3.106c-0.028,0.046 -0.077,0.07 -0.127,0.07z" fill="#472b29"></path><path d="M53.013,71.281c-0.027,0 -0.056,-0.007 -0.08,-0.023c-0.07,-0.044 -0.091,-0.137 -0.047,-0.207l1.962,-3.106c0.044,-0.07 0.138,-0.091 0.207,-0.047c0.07,0.044 0.091,0.137 0.047,0.207l-1.962,3.106c-0.028,0.046 -0.077,0.07 -0.127,0.07z" fill="#472b29"></path><path d="M52.013,71.281c-0.027,0 -0.056,-0.007 -0.08,-0.023c-0.07,-0.044 -0.091,-0.137 -0.047,-0.207l1.297,-2.053c0.044,-0.07 0.138,-0.091 0.207,-0.047c0.07,0.044 0.091,0.137 0.047,0.207l-1.297,2.053c-0.028,0.046 -0.077,0.07 -0.127,0.07z" fill="#472b29"></path><path d="M51.013,71.281c-0.027,0 -0.056,-0.007 -0.08,-0.023c-0.07,-0.044 -0.091,-0.137 -0.047,-0.207l0.813,-1.289c0.043,-0.071 0.139,-0.09 0.207,-0.047c0.07,0.044 0.091,0.137 0.047,0.207l-0.813,1.289c-0.028,0.046 -0.077,0.07 -0.127,0.07z" fill="#472b29"></path><path d="M42.36,36.875c0.655,0.986 1.998,3.088 2.881,4.476c0.521,0.819 0.536,1.864 0.041,2.7l-0.2,0.338c-0.542,0.914 -0.469,2.071 0.186,2.906c0.896,1.142 2.226,2.765 3.492,4.03c1.287,1.286 2.981,2.72 4.158,3.682c0.827,0.676 1.98,0.758 2.891,0.204l0.37,-0.224c0.798,-0.484 1.793,-0.487 2.592,-0.006c1.365,0.821 3.449,2.085 4.438,2.743c0.508,0.338 0.709,0.977 0.496,1.548c-0.637,1.714 -1.678,3.561 -4.974,3.561c-3.794,0 -9.043,-4.106 -13.205,-8.266v0c-0.001,-0.001 -0.003,-0.003 -0.005,-0.005c-0.001,-0.001 -0.003,-0.003 -0.005,-0.005v0c-4.16,-4.162 -8.281,-9.198 -8.281,-13.085c0,-3.536 1.862,-4.457 3.577,-5.095c0.571,-0.211 1.21,-0.01 1.548,0.498z" fill="#ffffff"></path><path d="M49,58.024c-0.057,0 -0.114,-0.02 -0.161,-0.059c-0.662,-0.559 -1.339,-1.161 -2.01,-1.789c-0.101,-0.094 -0.106,-0.252 -0.012,-0.354c0.094,-0.102 0.254,-0.105 0.354,-0.012c0.665,0.622 1.335,1.219 1.99,1.772c0.105,0.089 0.119,0.247 0.03,0.352c-0.049,0.06 -0.12,0.09 -0.191,0.09z" fill="#472b29"></path><path d="M58.73,63.083c-2.088,0 -4.739,-1.184 -7.88,-3.518c-0.11,-0.083 -0.134,-0.239 -0.051,-0.35c0.083,-0.112 0.239,-0.133 0.35,-0.052c3.052,2.269 5.603,3.419 7.581,3.419c3.056,0 4.084,-1.633 4.739,-3.398c0.174,-0.466 0.01,-0.982 -0.399,-1.253c-0.959,-0.638 -2.938,-1.841 -4.429,-2.737c-0.721,-0.434 -1.614,-0.431 -2.333,0.006l-0.37,0.224c-0.997,0.604 -2.275,0.515 -3.179,-0.225c-1.192,-0.975 -2.885,-2.408 -4.177,-3.699c-1.277,-1.278 -2.614,-2.909 -3.511,-4.052c-0.714,-0.909 -0.797,-2.19 -0.205,-3.188l0.2,-0.337c0.45,-0.76 0.436,-1.694 -0.037,-2.438c-0.961,-1.511 -2.241,-3.513 -2.879,-4.472c-0.271,-0.409 -0.786,-0.575 -1.253,-0.4c-1.727,0.642 -3.413,1.546 -3.413,4.86c0,3.117 2.762,7.46 8.208,12.908c0.098,0.098 0.098,0.256 0,0.354c-0.098,0.098 -0.256,0.098 -0.354,0c-5.544,-5.545 -8.354,-10.007 -8.354,-13.262c0,-3.634 1.93,-4.656 3.739,-5.329c0.683,-0.253 1.442,-0.011 1.843,0.592c0.641,0.962 1.922,2.967 2.885,4.48c0.574,0.904 0.592,2.039 0.045,2.961l-0.2,0.337c-0.486,0.822 -0.419,1.876 0.168,2.625c0.889,1.132 2.212,2.746 3.472,4.007c1.277,1.276 2.956,2.698 4.14,3.666c0.739,0.606 1.785,0.682 2.603,0.184l0.37,-0.224c0.879,-0.533 1.97,-0.536 2.851,-0.007c1.495,0.899 3.48,2.107 4.448,2.75c0.603,0.4 0.846,1.159 0.591,1.844c-0.684,1.842 -1.838,3.724 -5.209,3.724z" fill="#472b29"></path><path d="M45.52,54.81c-0.069,0 -0.13,-0.03 -0.18,-0.08c-0.05,-0.04 -0.07,-0.11 -0.07,-0.17c0,-0.07 0.021,-0.13 0.07,-0.18c0.07,-0.07 0.18,-0.09 0.27,-0.05c0.03,0.01 0.061,0.03 0.08,0.05c0.051,0.05 0.08,0.11 0.08,0.18c0,0.06 -0.029,0.13 -0.08,0.17c-0.041,0.05 -0.11,0.08 -0.17,0.08z" fill="#472b29"></path><path d="M45.518,54.812c-0.08,0 -0.157,-0.038 -0.205,-0.11l0.003,-0.001c-0.06,-0.113 -0.035,-0.265 0.072,-0.337c0.116,-0.077 0.26,-0.059 0.337,0.056c0.076,0.115 0.048,0.272 -0.067,0.349c-0.044,0.028 -0.093,0.043 -0.14,0.043z" fill="#472b29"></path><path d="M45.525,54.817c-0.062,0 -0.123,-0.023 -0.17,-0.066c-0.083,-0.073 -0.11,-0.196 -0.059,-0.3c0.063,-0.124 0.215,-0.174 0.335,-0.112c0.039,0.02 0.077,0.053 0.102,0.089c0.076,0.115 0.046,0.27 -0.069,0.347c-0.043,0.029 -0.091,0.042 -0.139,0.042z" fill="#472b29"></path><path d="M45.52,54.82c-0.06,0 -0.13,-0.03 -0.17,-0.08c-0.05,-0.04 -0.08,-0.11 -0.08,-0.17c0,-0.07 0.03,-0.13 0.08,-0.18c0.021,-0.02 0.05,-0.04 0.08,-0.05c0.09,-0.04 0.2,-0.02 0.271,0.05c0.05,0.05 0.08,0.11 0.08,0.18c0,0.06 -0.03,0.13 -0.08,0.17c-0.041,0.05 -0.111,0.08 -0.181,0.08z" fill="#472b29"></path></g></g>
</svg>