<svg xmlns="http://www.w3.org/2000/svg" x="0px" y="0px" width="200" height="200" viewBox="0,0,256,256">
<g fill="none" fill-rule="nonzero" stroke="none" stroke-width="1" stroke-linecap="butt" stroke-linejoin="miter" stroke-miterlimit="10" stroke-dasharray="" stroke-dashoffset="0" font-family="none" font-weight="none" font-size="none" text-anchor="none" style="mix-blend-mode: normal"><g transform="scale(2.56,2.56)"><circle cx="78" cy="14" r="1" fill="#f1bc19"></circle><circle cx="50" cy="50" r="38" fill="#fce0a2"></circle><circle cx="84" cy="16" r="4" fill="#f1bc19"></circle><circle cx="14" cy="26" r="2" fill="#ee3e54"></circle><circle cx="78" cy="77" r="2" fill="#fbcd59"></circle><circle cx="17" cy="78" r="4" fill="#fbcd59"></circle><circle cx="24" cy="83" r="2" fill="#ee3e54"></circle><circle cx="66.483" cy="78.517" r="2.483" fill="#ffffff"></circle><circle cx="16" cy="48" r="1" fill="#ffffff"></circle><circle cx="86" cy="31" r="1" fill="#f1bc19"></circle><circle cx="80" cy="66" r="2" fill="#ffffff"></circle><g><circle cx="50" cy="50" r="24.25" fill="#35aeec"></circle><path d="M50,74.95c-13.757,0 -24.95,-11.192 -24.95,-24.95c0,-13.758 11.193,-24.95 24.95,-24.95c13.757,0 24.95,11.192 24.95,24.95c0,13.758 -11.193,24.95 -24.95,24.95zM50,26.45c-12.985,0 -23.55,10.564 -23.55,23.55c0,12.986 10.565,23.55 23.55,23.55c12.985,0 23.55,-10.565 23.55,-23.55c0,-12.985 -10.565,-23.55 -23.55,-23.55z" fill-opacity="0.12941" fill="#000000"></path></g><g fill="#35aeec"><ellipse cx="49.938" cy="50.125" rx="20.438" ry="20.375"></ellipse></g><g fill-opacity="0.12941" fill="#000000"><path d="M69.424,44.75c-0.214,0 -0.412,-0.139 -0.478,-0.354c-0.088,-0.287 -0.183,-0.571 -0.284,-0.853c-0.392,-1.094 -0.886,-2.159 -1.47,-3.169c-0.139,-0.238 -0.057,-0.545 0.182,-0.683c0.239,-0.141 0.545,-0.057 0.683,0.183c0.614,1.061 1.134,2.182 1.546,3.331c0.106,0.297 0.206,0.595 0.298,0.897c0.081,0.264 -0.067,0.544 -0.332,0.625c-0.048,0.016 -0.097,0.023 -0.145,0.023z"></path></g><g fill-opacity="0.12941" fill="#000000"><path d="M50,70.875c-11.511,0 -20.875,-9.337 -20.875,-20.813c0,-11.476 9.364,-20.812 20.875,-20.812c5.975,0 11.674,2.56 15.636,7.023c0.299,0.337 0.588,0.685 0.865,1.041c0.169,0.218 0.13,0.531 -0.087,0.701c-0.218,0.172 -0.532,0.131 -0.702,-0.088c-0.264,-0.339 -0.54,-0.669 -0.824,-0.99c-3.772,-4.249 -9.199,-6.687 -14.888,-6.687c-10.959,0 -19.875,8.888 -19.875,19.813c0,10.925 8.916,19.812 19.875,19.812c10.959,0 19.875,-8.888 19.875,-19.813c0,-0.995 -0.075,-1.996 -0.222,-2.973c-0.041,-0.272 0.147,-0.527 0.42,-0.568c0.278,-0.041 0.528,0.147 0.569,0.42c0.154,1.025 0.233,2.076 0.233,3.121c0,11.476 -9.364,20.813 -20.875,20.813z"></path></g><g><path d="M62.941,42.772c-0.897,0.407 -1.86,0.682 -2.874,0.804c1.033,-0.632 1.826,-1.634 2.2,-2.827c-0.967,0.585 -2.038,1.011 -3.176,1.24c-0.913,-0.993 -2.213,-1.614 -3.653,-1.614c-2.763,0 -5.001,2.288 -5.001,5.111c0,0.4 0.044,0.791 0.128,1.165c-4.158,-0.213 -7.843,-2.248 -10.31,-5.341c-0.43,0.755 -0.677,1.633 -0.677,2.57c0,1.774 0.883,3.338 2.224,4.256c-0.819,-0.027 -1.591,-0.256 -2.266,-0.639c-0.001,0.021 -0.001,0.043 -0.001,0.064c0,2.478 1.724,4.544 4.012,5.013c-0.419,0.116 -0.861,0.179 -1.318,0.179c-0.323,0 -0.636,-0.032 -0.94,-0.091c0.636,2.03 2.484,3.508 4.672,3.55c-1.711,1.371 -3.868,2.189 -6.211,2.189c-0.404,0 -0.803,-0.025 -1.193,-0.071c2.213,1.449 4.843,2.295 7.668,2.295c9.201,0 14.233,-7.789 14.233,-14.545c0,-0.221 -0.006,-0.442 -0.015,-0.662c0.979,-0.721 1.826,-1.619 2.498,-2.646z" fill="#ffffff"></path><path d="M46.225,61.125c-2.82,0 -5.566,-0.822 -7.942,-2.377c-0.194,-0.127 -0.275,-0.371 -0.196,-0.589c0.079,-0.218 0.3,-0.357 0.529,-0.325c2.11,0.252 4.237,-0.209 6.03,-1.308c-1.789,-0.481 -3.254,-1.862 -3.834,-3.715c-0.053,-0.168 -0.013,-0.352 0.104,-0.483c0.117,-0.131 0.296,-0.194 0.468,-0.156c0.007,0.001 0.013,0.002 0.02,0.003c-1.444,-1.024 -2.369,-2.731 -2.369,-4.613c0,-0.178 0.095,-0.375 0.249,-0.464c0.153,-0.09 0.344,-0.124 0.499,-0.035c0.131,0.074 0.267,0.142 0.404,0.202c-0.711,-0.961 -1.11,-2.144 -1.11,-3.384c0,-0.989 0.257,-1.964 0.743,-2.817c0.082,-0.145 0.23,-0.238 0.396,-0.251c0.171,-0.012 0.327,0.057 0.43,0.187c2.323,2.91 5.693,4.749 9.324,5.106c-0.021,-0.204 -0.032,-0.411 -0.032,-0.619c0,-3.094 2.467,-5.611 5.5,-5.611c1.422,0 2.797,0.567 3.818,1.567c0.967,-0.224 1.892,-0.6 2.752,-1.12c0.178,-0.108 0.404,-0.094 0.567,0.034c0.164,0.129 0.231,0.345 0.168,0.543c-0.204,0.65 -0.522,1.252 -0.933,1.778c0.313,-0.104 0.621,-0.224 0.922,-0.36c0.203,-0.092 0.441,-0.039 0.586,0.13c0.145,0.168 0.161,0.412 0.039,0.599c-0.658,1.008 -1.467,1.886 -2.406,2.613c0.004,0.141 0.006,0.28 0.006,0.421c0.001,7.395 -5.51,15.044 -14.732,15.044zM40.556,58.871c1.774,0.824 3.702,1.254 5.669,1.254c8.597,0 13.733,-7.141 13.733,-14.045c0,-0.215 -0.005,-0.429 -0.014,-0.642c-0.007,-0.167 0.069,-0.325 0.203,-0.424c0.487,-0.358 0.937,-0.76 1.347,-1.201c-0.448,0.117 -0.905,0.203 -1.368,0.259c-0.229,0.034 -0.455,-0.109 -0.532,-0.332c-0.077,-0.222 0.011,-0.468 0.211,-0.591c0.539,-0.329 0.999,-0.766 1.358,-1.277c-0.636,0.269 -1.296,0.472 -1.975,0.607c-0.171,0.036 -0.347,-0.022 -0.466,-0.152c-0.848,-0.923 -2.045,-1.452 -3.284,-1.452c-2.481,0 -4.5,2.068 -4.5,4.611c0,0.36 0.039,0.716 0.116,1.055c0.035,0.152 -0.004,0.313 -0.105,0.433c-0.101,0.12 -0.25,0.189 -0.409,0.177c-3.891,-0.2 -7.552,-1.981 -10.164,-4.921c-0.196,0.524 -0.298,1.085 -0.298,1.651c0,1.547 0.75,2.983 2.007,3.843c0.184,0.126 0.262,0.357 0.193,0.568c-0.069,0.211 -0.275,0.336 -0.492,0.345c-0.575,-0.02 -1.146,-0.132 -1.686,-0.33c0.309,1.882 1.706,3.4 3.548,3.777c0.226,0.047 0.391,0.242 0.399,0.473c0.008,0.231 -0.143,0.438 -0.366,0.499c-0.525,0.146 -1.063,0.213 -1.612,0.195c0.754,1.469 2.239,2.429 3.902,2.461c0.21,0.004 0.396,0.14 0.463,0.339c0.067,0.199 0.004,0.42 -0.161,0.552c-1.664,1.334 -3.627,2.11 -5.717,2.268z" fill-opacity="0.12941" fill="#000000"></path></g></g></g>
</svg>