<svg xmlns="http://www.w3.org/2000/svg" x="0px" y="0px" width="200" height="200" viewBox="0,0,256,256">
<g fill="none" fill-rule="nonzero" stroke="none" stroke-width="1" stroke-linecap="butt" stroke-linejoin="miter" stroke-miterlimit="10" stroke-dasharray="" stroke-dashoffset="0" font-family="none" font-weight="none" font-size="none" text-anchor="none" style="mix-blend-mode: normal"><g transform="scale(2.56,2.56)"><path d="M13,27c-1.10457,0 -2,0.89543 -2,2c0,1.10457 0.89543,2 2,2c1.10457,0 2,-0.89543 2,-2c0,-1.10457 -0.89543,-2 -2,-2z" fill="#ee3e54"></path><path d="M77,12c-0.55228,0 -1,0.44772 -1,1c0,0.55228 0.44772,1 1,1c0.55228,0 1,-0.44772 1,-1c0,-0.55228 -0.44772,-1 -1,-1z" fill="#f1bc19"></path><path d="M50,13c-20.43454,0 -37,16.56546 -37,37c0,20.43454 16.56546,37 37,37c20.43454,0 37,-16.56546 37,-37c0,-20.43454 -16.56546,-37 -37,-37z" fill="#fce0a2"></path><path d="M83,11c-2.20914,0 -4,1.79086 -4,4c0,2.20914 1.79086,4 4,4c2.20914,0 4,-1.79086 4,-4c0,-2.20914 -1.79086,-4 -4,-4z" fill="#f1bc19"></path><path d="M87,22c-1.10457,0 -2,0.89543 -2,2c0,1.10457 0.89543,2 2,2c1.10457,0 2,-0.89543 2,-2c0,-1.10457 -0.89543,-2 -2,-2z" fill="#ee3e54"></path><path d="M81,74c-1.10457,0 -2,0.89543 -2,2c0,1.10457 0.89543,2 2,2c1.10457,0 2,-0.89543 2,-2c0,-1.10457 -0.89543,-2 -2,-2zM15,59c-2.20914,0 -4,1.79086 -4,4c0,2.20914 1.79086,4 4,4c2.20914,0 4,-1.79086 4,-4c0,-2.20914 -1.79086,-4 -4,-4z" fill="#fbcd59"></path><path d="M25,85c-1.10457,0 -2,0.89543 -2,2c0,1.10457 0.89543,2 2,2c1.10457,0 2,-0.89543 2,-2c0,-1.10457 -0.89543,-2 -2,-2z" fill="#ee3e54"></path><path d="M18.5,51c-1.38071,0 -2.5,1.11929 -2.5,2.5c0,1.38071 1.11929,2.5 2.5,2.5c1.38071,0 2.5,-1.11929 2.5,-2.5c0,-1.38071 -1.11929,-2.5 -2.5,-2.5z" fill="#ffffff"></path><path d="M21,66c-0.55228,0 -1,0.44772 -1,1c0,0.55228 0.44772,1 1,1c0.55228,0 1,-0.44772 1,-1c0,-0.55228 -0.44772,-1 -1,-1z" fill="#f1bc19"></path><path d="M80,33c-0.55228,0 -1,0.44772 -1,1c0,0.55228 0.44772,1 1,1c0.55228,0 1,-0.44772 1,-1c0,-0.55228 -0.44772,-1 -1,-1z" fill="#ffffff"></path><g><path d="M35,72.3c-4.025,0 -7.3,-3.274 -7.3,-7.3v-30c0,-4.025 3.274,-7.3 7.3,-7.3h30c4.025,0 7.3,3.274 7.3,7.3v30c0,4.025 -3.274,7.3 -7.3,7.3z" fill="#ed4860"></path><path d="M65,28.4c3.639,0 6.6,2.961 6.6,6.6v30c0,3.639 -2.961,6.6 -6.6,6.6h-30c-3.639,0 -6.6,-2.961 -6.6,-6.6v-30c0,-3.639 2.961,-6.6 6.6,-6.6h30M65,27h-30c-4.4,0 -8,3.6 -8,8v30c0,4.4 3.6,8 8,8h30c4.4,0 8,-3.6 8,-8v-30c0,-4.4 -3.6,-8 -8,-8z" fill-opacity="0.72941" fill="#472b29"></path></g><g fill-opacity="0.72941" fill="#472b29"><path d="M68.5,47.375c-0.276,0 -0.5,-0.224 -0.5,-0.5v-3.875c0,-0.276 0.224,-0.5 0.5,-0.5c0.276,0 0.5,0.224 0.5,0.5v3.875c0,0.276 -0.224,0.5 -0.5,0.5z"></path></g><g fill-opacity="0.72941" fill="#472b29"><path d="M68.5,40.5c-0.276,0 -0.5,-0.224 -0.5,-0.5v-2c0,-0.276 0.224,-0.5 0.5,-0.5c0.276,0 0.5,0.224 0.5,0.5v2c0,0.276 -0.224,0.5 -0.5,0.5z"></path></g><g fill-opacity="0.72941" fill="#472b29"><path d="M64,69h-28c-2.757,0 -5,-2.243 -5,-5v-28c0,-2.757 2.243,-5 5,-5h25.375c0.276,0 0.5,0.224 0.5,0.5c0,0.276 -0.224,0.5 -0.5,0.5h-25.375c-2.206,0 -4,1.794 -4,4v28c0,2.206 1.794,4 4,4h28c2.206,0 4,-1.794 4,-4v-14.375c0,-0.276 0.224,-0.5 0.5,-0.5c0.276,0 0.5,0.224 0.5,0.5v14.375c0,2.757 -2.243,5 -5,5z"></path></g><g fill="#ffffff"><path d="M50,66c-3.995,-0.001 -9.344,-0.091 -11.391,-0.255c-3.344,-0.278 -3.45,-3.764 -3.561,-7.453c-0.015,-0.457 -0.027,-0.91 -0.048,-1.354c0,-2.018 0.212,-4.357 0.553,-6.085c0.65,-2.594 2.145,-2.638 4.862,-2.719c0.406,-0.012 0.833,-0.025 1.275,-0.048c0.004,0 0.248,-0.003 0.506,-0.009c1.065,-0.024 3.557,-0.077 7.711,-0.077c0,0 0.161,0.001 0.192,0.001c4.184,0 6.648,0.053 7.704,0.075c0.279,0.006 0.455,0.009 0.531,0.009c0.418,0.022 0.845,0.035 1.251,0.047c2.715,0.081 4.212,0.125 4.866,2.738c0.336,1.709 0.549,4.049 0.549,6.085c-0.02,0.425 -0.034,0.879 -0.048,1.335c-0.111,3.69 -0.216,7.176 -3.562,7.453c-2.046,0.166 -7.395,0.256 -11.39,0.257z"></path></g><g fill="#ffffff"><path d="M45.456,34l-1.684,4.716l-1.684,-4.716h-1.684l2.526,7.074v4.715h1.684v-4.715l2.526,-7.074z"></path></g><g fill="#ffffff"><path d="M56.404,36.947v6.526c0,0 -0.368,0.835 -1.053,0.842c-0.616,0.006 -0.632,-0.333 -0.632,-0.526v-6.842h-1.684v7.158c0,1.263 0.947,1.684 1.508,1.684c1.123,0 1.65,-0.842 1.86,-1.158v1.053h1.684v-8.737z"></path></g><g fill="#ffffff"><path d="M49.456,45.789c-1.393,0 -2.526,-1.157 -2.526,-2.579v-3.789c0,-1.421 1.133,-2.579 2.526,-2.579c1.393,0 2.526,1.157 2.526,2.579v3.789c0,1.422 -1.133,2.579 -2.526,2.579zM49.456,38.421c-0.465,0 -0.842,0.417 -0.842,0.93v3.93c0,0.513 0.377,0.93 0.842,0.93c0.465,0 0.842,-0.417 0.842,-0.93v-3.93c0,-0.513 -0.377,-0.93 -0.842,-0.93z"></path></g><g fill="#ed4860"><path d="M49,62.632h-1.743v-1.158c-0.218,0.316 -0.762,1.157 -1.925,1.158c-0.58,0 -1.561,-0.421 -1.561,-1.684v-7.579h1.743v7.263c0,0.194 0.016,0.532 0.654,0.526c0.708,-0.007 1.089,-0.842 1.089,-0.842v-6.947h1.743zM43,52.526h-1.778v10.106h-1.778v-10.106h-1.777v-1.684h5.333zM55.905,55.524c0,-0.727 -0.238,-1.219 -0.542,-1.591c-0.301,-0.371 -0.746,-0.565 -1.311,-0.565c-0.283,0 -0.566,0.076 -0.848,0.215c-0.283,0.136 -0.584,0.375 -0.784,0.678v-3.419h-1.743v11.789h1.743v-1.158c0.336,0.38 0.827,1.167 1.743,1.158c1.307,0 1.743,-1.158 1.743,-2.105v-5.002zM54.162,60.125c0,0.465 -0.39,0.823 -0.871,0.823c-0.481,0 -0.864,-0.179 -0.871,-0.421v-5.002c0.008,-0.424 0.39,-0.842 0.871,-0.842c0.481,0 0.871,0.37 0.871,1.213zM62.667,58.421v-2.624c0,-0.84 -0.439,-2.429 -2.632,-2.429c-2.083,0 -2.629,1.667 -2.629,2.429v3.965c0,0.861 0.244,1.527 0.709,2.014c0.469,0.488 1.119,0.723 1.954,0.723c0.911,0 1.605,-0.217 2.051,-0.686c0.47,-0.449 0.547,-1.13 0.547,-2.051v-0.499h-1.754v0.421c0,0.508 -0.052,0.898 -0.175,1.037c-0.121,0.155 -0.347,0.223 -0.703,0.227c-0.322,0.003 -0.567,-0.083 -0.688,-0.276c-0.124,-0.176 -0.189,-0.479 -0.189,-0.948v-1.302h3.509zM59.158,55.895c0.008,-0.452 0.393,-0.842 0.877,-0.842c0.484,0 0.877,0.324 0.877,0.842v0.842h-1.754z"></path></g><g fill-opacity="0.72941" fill="#472b29"><path d="M57.826,48.326c-0.002,0 -0.003,0 -0.005,0c-0.543,-0.012 -1.457,-0.03 -2.781,-0.047c-0.138,-0.002 -0.249,-0.115 -0.247,-0.253c0.002,-0.137 0.113,-0.247 0.25,-0.247c0.001,0 0.002,0 0.003,0c1.327,0.017 2.242,0.035 2.786,0.047c0.138,0.003 0.248,0.117 0.245,0.256c-0.004,0.136 -0.115,0.244 -0.251,0.244z"></path><path d="M49.958,66.25c-4.034,-0.001 -9.438,-0.091 -11.506,-0.257c-3.596,-0.296 -3.71,-4.057 -3.82,-7.694l-0.007,-0.241c-0.012,-0.374 -0.023,-0.744 -0.041,-1.109c0,-2.052 0.215,-4.402 0.562,-6.146c0.704,-2.788 2.373,-2.838 5.138,-2.92c0.41,-0.012 0.838,-0.024 1.283,-0.048l0.519,-0.009c0.954,-0.021 3.49,-0.076 7.78,-0.076l0.193,0.001c1.285,0 2.408,0.005 3.38,0.013c0.138,0.001 0.249,0.114 0.248,0.252c-0.001,0.138 -0.113,0.248 -0.25,0.248c0,0 -0.001,0 -0.002,0c-0.971,-0.008 -2.093,-0.013 -3.376,-0.013l-0.195,-0.001c-4.283,0 -6.815,0.056 -7.768,0.076c-0.263,0.005 -0.512,0.009 -0.516,0.009c-0.436,0.023 -0.867,0.036 -1.279,0.048c-2.703,0.08 -4.059,0.12 -4.667,2.53c-0.338,1.7 -0.549,4.014 -0.549,6.023c0.017,0.355 0.029,0.729 0.041,1.105l0.008,0.241c0.113,3.73 0.21,6.953 3.361,7.212c2.055,0.164 7.441,0.254 11.465,0.255c4.024,-0.001 9.41,-0.091 11.465,-0.255c3.151,-0.26 3.249,-3.482 3.361,-7.213l0.005,-0.145c0.013,-0.408 0.026,-0.813 0.044,-1.194c0,-2.004 -0.211,-4.317 -0.549,-6.023c-0.611,-2.417 -1.966,-2.457 -4.667,-2.537l0.012,-0.5l-0.007,0.25l0.01,-0.25c2.765,0.082 4.433,0.132 5.139,2.927c0.348,1.749 0.562,4.099 0.562,6.146c-0.019,0.391 -0.031,0.793 -0.044,1.199l-0.004,0.144c-0.11,3.638 -0.224,7.398 -3.821,7.695c-2.07,0.166 -7.474,0.256 -11.508,0.257z"></path></g></g></g>
</svg>